<svg width="106" height="70" viewBox="0 0 106 70" fill="none" xmlns="http://www.w3.org/2000/svg">
  <path d="M20.2917 7.44C21.2757 6.84 22.0317 6.54 22.5597 6.54C23.1117 6.54 23.6157 6.648 24.0717 6.864L21.2637 18.564C21.1437 19.668 20.8437 21.864 20.3637 25.152C19.9077 28.416 19.5717 31.032 19.3557 33C17.8677 33.12 16.7397 32.832 15.9717 32.136C13.0197 26.448 10.1997 19.404 7.51166 11.004L5.89166 18.564C5.77166 19.764 5.48366 22.008 5.02766 25.296C4.57166 28.56 4.23566 31.128 4.01966 33C2.29166 33.168 1.13966 32.796 0.563656 31.884C1.81166 27.036 2.65166 23.592 3.08366 21.552C3.51566 19.488 3.92366 17.34 4.30766 15.108L4.91966 7.44C5.95166 6.84 6.71966 6.54 7.22366 6.54C7.72766 6.54 8.21966 6.648 8.69966 6.864C10.4037 12.912 12.4317 18.804 14.7837 24.54L17.0157 28.464C17.1597 27.792 17.3757 26.82 17.6637 25.548C17.9517 24.252 18.1797 23.208 18.3477 22.416C18.8517 19.992 19.2957 17.556 19.6797 15.108L20.2917 7.44ZM23.8908 24.72C23.8908 23.16 24.3948 21.456 25.4028 19.608C26.4108 17.76 27.6348 16.212 29.0748 14.964C30.5388 13.716 31.8708 13.092 33.0708 13.092C34.2708 13.092 35.5668 14.208 36.9588 16.44C38.3508 18.672 39.0588 20.568 39.0828 22.128C39.1308 23.688 38.6268 25.32 37.5708 27.024C36.5388 28.704 35.2668 30.12 33.7548 31.272C32.2668 32.424 30.9228 33 29.7228 33C28.5228 33 27.2508 32.16 25.9068 30.48C24.5628 28.8 23.8908 26.88 23.8908 24.72ZM32.7828 15.108C30.8628 16.188 29.4108 17.46 28.4268 18.924C27.4428 20.364 26.7348 22.068 26.3028 24.036C26.3988 25.644 26.7108 27.012 27.2388 28.14C27.7668 29.268 28.5828 30.3 29.6868 31.236C31.8228 30.324 33.4428 29.172 34.5468 27.78C35.6748 26.388 36.4428 24.636 36.8508 22.524C36.6348 21.252 36.1668 19.932 35.4468 18.564C34.7268 17.196 33.8388 16.044 32.7828 15.108ZM41.3283 24.72C41.3283 23.16 41.8323 21.456 42.8403 19.608C43.8483 17.76 45.0723 16.212 46.5123 14.964C47.9763 13.716 49.3083 13.092 50.5083 13.092C51.7083 13.092 53.0043 14.208 54.3963 16.44C55.7883 18.672 56.4963 20.568 56.5203 22.128C56.5683 23.688 56.0643 25.32 55.0083 27.024C53.9763 28.704 52.7043 30.12 51.1923 31.272C49.7043 32.424 48.3603 33 47.1603 33C45.9603 33 44.6883 32.16 43.3443 30.48C42.0003 28.8 41.3283 26.88 41.3283 24.72ZM50.2203 15.108C48.3003 16.188 46.8483 17.46 45.8643 18.924C44.8803 20.364 44.1723 22.068 43.7403 24.036C43.8363 25.644 44.1483 27.012 44.6763 28.14C45.2043 29.268 46.0203 30.3 47.1243 31.236C49.2603 30.324 50.8803 29.172 51.9843 27.78C53.1123 26.388 53.8803 24.636 54.2883 22.524C54.0723 21.252 53.6043 19.932 52.8843 18.564C52.1643 17.196 51.2763 16.044 50.2203 15.108ZM62.3298 19.896L62.4738 20.184C65.5458 17.592 68.8338 15.384 72.3378 13.56C72.9138 13.656 73.2978 13.956 73.4898 14.46C73.7058 14.964 73.6818 15.504 73.4178 16.08C68.9778 17.856 65.5698 19.74 63.1938 21.732C65.1618 25.524 68.4738 28.476 73.1298 30.588C73.3698 31.02 73.3338 31.464 73.0218 31.92C72.7098 32.352 72.1938 32.712 71.4738 33C69.8898 32.088 68.2818 30.876 66.6498 29.364C65.0418 27.828 63.6498 26.196 62.4738 24.468C62.0178 26.868 61.5138 29.712 60.9618 33C59.3778 33.144 58.3458 32.856 57.8658 32.136C59.4018 26.928 60.8178 20.112 62.1138 11.688L61.7538 4.848C62.6898 3.984 63.8538 3.636 65.2458 3.804C65.2218 5.772 64.5498 10.716 63.2298 18.636L62.3298 19.896ZM82.2496 9.816C81.6496 9.864 81.2176 9.684 80.9536 9.276L83.1496 5.892L82.2136 1.356C83.0776 0.707999 83.9176 0.539999 84.7336 0.851998C85.5496 1.164 86.1256 1.788 86.4616 2.724C86.3176 3.948 85.8256 5.22 84.9856 6.54C84.1456 7.836 83.2336 8.928 82.2496 9.816ZM97.9051 26.844C97.9051 26.1 96.4411 25.104 93.5131 23.856C92.4091 23.376 91.3291 22.752 90.2731 21.984C89.2411 21.192 88.6051 20.364 88.3651 19.5C88.6531 17.772 89.6131 16.308 91.2451 15.108C92.8771 13.908 94.7011 13.236 96.7171 13.092C97.8691 13.596 98.8051 14.232 99.5251 15C100.269 15.744 100.773 16.776 101.037 18.096C100.965 18.48 100.677 18.768 100.173 18.96C99.6931 19.128 99.0211 19.128 98.1571 18.96C98.0851 17.52 97.5211 16.116 96.4651 14.748C95.1931 15.108 93.9931 15.744 92.8651 16.656C91.7611 17.568 91.2091 18.336 91.2091 18.96C91.2091 19.632 92.6491 20.628 95.5291 21.948C96.6331 22.452 97.7011 23.148 98.7331 24.036C99.7891 24.9 100.437 25.824 100.677 26.808C100.269 28.68 99.3091 30.156 97.7971 31.236C96.3091 32.316 94.3771 32.904 92.0011 33C90.6811 32.616 89.4931 31.884 88.4371 30.804C87.4051 29.724 86.8051 28.656 86.6371 27.6C87.0691 26.952 87.4771 26.532 87.8611 26.34C88.2691 26.124 88.7731 26.076 89.3731 26.196C89.8051 28.452 90.7771 30.192 92.2891 31.416C94.0651 31.056 95.4451 30.432 96.4291 29.544C97.4131 28.656 97.9051 27.756 97.9051 26.844ZM17.4506 60.432C17.4506 63.048 16.4906 65.412 14.5706 67.524C11.2106 68.724 7.44261 69.216 3.26661 69C2.33061 68.736 1.62261 68.412 1.14261 68.028C0.68661 67.62 0.41061 67.104 0.31461 66.48C1.63461 61.536 2.64261 57.156 3.33861 53.34L4.59861 45.168L3.30261 45.456C2.79861 45.12 2.49861 44.712 2.40261 44.232C2.33061 43.752 2.42661 43.368 2.69061 43.08C4.39461 42.72 6.23061 42.54 8.19861 42.54C11.2226 42.54 13.6106 43.2 15.3626 44.52C17.1146 45.816 17.9786 47.328 17.9546 49.056C17.9546 50.784 17.6186 52.092 16.9466 52.98C16.2986 53.868 15.1346 54.792 13.4546 55.752L13.4186 56.004C14.6426 56.364 15.7946 56.976 16.8746 57.84C17.2586 58.632 17.4506 59.496 17.4506 60.432ZM3.62661 67.02C7.25061 67.068 10.1906 66.696 12.4466 65.904C13.8146 64.32 14.5106 62.556 14.5346 60.612C14.5346 59.964 14.4506 59.376 14.2826 58.848C13.2026 57.888 12.0146 57.264 10.7186 56.976C9.42261 56.664 7.61061 56.628 5.28261 56.868L3.62661 67.02ZM15.0026 49.344C15.0026 47.904 14.3186 46.728 12.9506 45.816C11.6066 44.904 9.69861 44.556 7.22661 44.772L5.42661 55.068C8.40261 55.116 10.8266 54.72 12.6986 53.88C12.7946 53.784 12.9866 53.628 13.2746 53.412C13.5626 53.172 13.7306 53.028 13.7786 52.98C13.8266 52.908 13.9466 52.788 14.1386 52.62C14.3306 52.428 14.4386 52.284 14.4626 52.188C14.5106 52.068 14.5826 51.912 14.6786 51.72C14.7986 51.504 14.8586 51.3 14.8586 51.108C14.8826 50.892 14.9066 50.64 14.9306 50.352C14.9786 50.04 15.0026 49.704 15.0026 49.344ZM30.5892 63.132L25.8732 68.532C24.0252 68.508 22.6092 67.968 21.6252 66.912C20.6412 65.856 20.1372 64.392 20.1132 62.52C20.0892 60.624 20.5212 58.656 21.4092 56.616C22.2972 54.552 23.4852 52.86 24.9732 51.54C26.4612 50.22 27.9732 49.56 29.5092 49.56C30.9252 50.184 32.1132 51.348 33.0732 53.052L33.1092 52.944C33.1812 51.36 33.3732 50.16 33.6852 49.344C35.3892 49.344 36.5292 49.728 37.1052 50.496L34.4052 55.788C33.9732 58.572 33.5172 62.976 33.0372 69C31.4052 69.192 30.1812 68.844 29.3652 67.956L30.9852 63.456L30.5892 63.132ZM22.8492 62.484C22.8492 64.308 23.5212 65.616 24.8652 66.408C27.0492 64.248 29.1612 62.208 31.2012 60.288L32.4252 54.996C32.0412 54.18 31.6332 53.52 31.2012 53.016C30.7692 52.512 30.1572 51.996 29.3652 51.468C27.3252 52.308 25.7292 53.724 24.5772 55.716C23.4252 57.684 22.8492 59.94 22.8492 62.484ZM41.1724 65.868H44.4484C46.2724 65.868 47.9884 66.012 49.5964 66.3C50.1004 65.316 50.4004 64.392 50.4964 63.528C52.2004 63.168 53.1004 63.516 53.1964 64.572C52.8124 66.348 51.7084 67.824 49.8844 69C48.6844 68.376 47.1604 67.956 45.3124 67.74C43.4884 67.5 41.8804 67.428 40.4884 67.524L40.3444 67.704L40.5964 68.316C40.2604 68.892 39.3724 69.12 37.9324 69C37.6444 68.448 37.5004 67.836 37.5004 67.164C37.5004 66.492 37.8124 65.808 38.4364 65.112C39.0604 64.392 39.8884 63.624 40.9204 62.808C41.9524 61.992 43.0324 61.14 44.1604 60.252C45.3124 59.34 46.5004 58.236 47.7244 56.94C48.9724 55.644 49.9924 54.324 50.7844 52.98L50.5684 52.692C48.3604 52.74 45.9004 52.464 43.1884 51.864C42.4924 52.896 42.1444 54.108 42.1444 55.5C40.7284 55.836 39.7924 55.572 39.3364 54.708C39.7924 52.068 40.9204 50.352 42.7204 49.56C46.1284 50.616 48.9484 51.12 51.1804 51.072L51.7924 49.56C52.6324 49.608 53.2324 49.728 53.5924 49.92C53.9524 50.112 54.2524 50.424 54.4924 50.856C54.3484 52.632 52.7404 54.984 49.6684 57.912C47.2924 60.168 45.2884 61.968 43.6564 63.312C42.0484 64.656 41.1604 65.4 40.9924 65.544L41.1724 65.868ZM66.765 63.132L62.049 68.532C60.201 68.508 58.785 67.968 57.801 66.912C56.817 65.856 56.313 64.392 56.289 62.52C56.265 60.624 56.697 58.656 57.585 56.616C58.473 54.552 59.661 52.86 61.149 51.54C62.637 50.22 64.149 49.56 65.685 49.56C67.101 50.184 68.289 51.348 69.249 53.052L69.285 52.944C69.357 51.36 69.549 50.16 69.861 49.344C71.565 49.344 72.705 49.728 73.281 50.496L70.581 55.788C70.149 58.572 69.693 62.976 69.213 69C67.581 69.192 66.357 68.844 65.541 67.956L67.161 63.456L66.765 63.132ZM59.025 62.484C59.025 64.308 59.697 65.616 61.041 66.408C63.225 64.248 65.337 62.208 67.377 60.288L68.601 54.996C68.217 54.18 67.809 53.52 67.377 53.016C66.945 52.512 66.333 51.996 65.541 51.468C63.501 52.308 61.905 53.724 60.753 55.716C59.601 57.684 59.025 59.94 59.025 62.484ZM84.8001 63.132L80.0841 68.532C78.2361 68.508 76.8201 67.968 75.8361 66.912C74.8521 65.856 74.3481 64.392 74.3241 62.52C74.3001 60.624 74.7321 58.656 75.6201 56.616C76.5081 54.552 77.6961 52.86 79.1841 51.54C80.6721 50.22 82.1841 49.56 83.7201 49.56C85.1361 50.184 86.3241 51.348 87.2841 53.052L87.3201 52.944C87.3921 51.36 87.5841 50.16 87.8961 49.344C89.6001 49.344 90.7401 49.728 91.3161 50.496L88.6161 55.788C88.1841 58.572 87.7281 62.976 87.2481 69C85.6161 69.192 84.3921 68.844 83.5761 67.956L85.1961 63.456L84.8001 63.132ZM77.0601 62.484C77.0601 64.308 77.7321 65.616 79.0761 66.408C81.2601 64.248 83.3721 62.208 85.4121 60.288L86.6361 54.996C86.2521 54.18 85.8441 53.52 85.4121 53.016C84.9801 52.512 84.3681 51.996 83.5761 51.468C81.5361 52.308 79.9401 53.724 78.7881 55.716C77.6361 57.684 77.0601 59.94 77.0601 62.484ZM96.7513 55.032L97.1833 55.32C98.5033 53.592 100.075 51.672 101.899 49.56C102.883 49.704 103.687 50.184 104.311 51C104.935 51.792 105.247 52.728 105.247 53.808C104.023 54.72 102.943 54.924 102.007 54.42C102.079 53.316 101.851 52.656 101.323 52.44C100.147 53.784 98.7673 55.488 97.1833 57.552C96.5353 61.824 95.8873 65.64 95.2393 69C93.6793 69.144 92.6593 68.856 92.1793 68.136C93.6193 63.168 94.6633 58.992 95.3113 55.608L94.5913 50.46C95.1193 49.932 95.6473 49.584 96.1753 49.416C96.7033 49.248 97.3513 49.224 98.1193 49.344C98.2393 49.92 98.1073 51.228 97.7233 53.268L96.7513 55.032Z" fill="black"/>
  <path d="M49.5614 27.7833C51.604 28.1099 52.291 25.463 52.018 23.1427C51.8065 21.1684 51.2636 20.3265 49.5613 19.2755C48.9119 18.6042 47.1047 18.5019 46.2858 20.0488C45.467 21.5957 47.1347 27.3954 49.5614 27.7833Z" fill="url(#paint0_radial)"/>
  <path d="M30.5889 27.7833C28.5463 28.1099 27.8593 25.463 28.1323 23.1427C28.3437 21.1684 28.8867 20.3265 30.5889 19.2755C31.2384 18.6042 33.0456 18.5019 33.8644 20.0488C34.6833 21.5957 33.0156 27.3954 30.5889 27.7833Z" fill="url(#paint1_radial)"/>
  <path d="M25.0751 23.3107C24.7634 21.5054 34.2459 21.9044 35.0752 14.8108C32.1529 11.6792 24.1422 18.2826 25.0751 23.3107Z" fill="black"/>
  <path d="M54.5751 24.3108C53.118 23.2884 48.5995 20.6623 46.0751 16.3108C53.3232 9.36023 56.0322 25.3331 54.5751 24.3108Z" fill="black"/>
  <defs>
    <radialGradient id="paint0_radial" cx="0" cy="0" r="1" gradientUnits="userSpaceOnUse" gradientTransform="translate(49.0751 23.3108) rotate(90) scale(4.5 3)">
      <stop stop-color="#5757FE"/>
      <stop offset="1" stop-color="#5757AD"/>
    </radialGradient>
    <radialGradient id="paint1_radial" cx="0" cy="0" r="1" gradientUnits="userSpaceOnUse" gradientTransform="translate(31.0751 23.3108) rotate(90) scale(4.5 3)">
      <stop stop-color="#5757FE"/>
      <stop offset="1" stop-color="#5757AD"/>
    </radialGradient>
  </defs>
</svg>
